{"title":"Crimes That Shook Australia - S02E05 - The Russell Street Bombin","uid":15108829,"size":373888156,"categoryP":"video","categoryS":"tv_shows","magnet":"?xt=urn:btih:8a50311a4014d4e9b4080ea592139b340d4bb2d7&amp;dn=Crimes+That+Shook+Australia+-+S02E05+-+The+Russell+Street+Bombin&amp;tr=udp%3A%2F%2Ftracker.leechers-paradise.org%3A6969&amp;tr=udp%3A%2F%2Fzer0day.ch%3A1337&amp;tr=udp%3A%2F%2Fopen.demonii.com%3A1337&amp;tr=udp%3A%2F%2Ftracker.coppersurfer.tk%3A6969&amp;tr=udp%3A%2F%2Fexodus.desync.com%3A6969","seeders":6,"leechers":1,"uploader":"Bullrout","files":1,"time":1466989033,"description":"Crimes That Shook Australia - S02E05 - The Russell Street Bombing\r\n\r\nMarch 27, 1986 was a day that shocked the nation. The explosion was caused by a car bomb hidden in a stolen Holden Commodore, which ripped apart the floors of the Police HQ and surrounding buildings in Melbourne. The blast seriously injured 22 people and was the cause of the first Australian policewoman fatality in the line of duty. In the course of the investigation, a group of people were apprehended. It was later found that the motivation for the bombing was revenge on police for previous convictions.\r\n\r\nComplete name : Crimes That Shook Australia - S02E05 - The Russell Street Bombing.mp4\r\nFormat : MPEG-4\r\nFormat profile : Base Media / Version 2\r\nCodec ID : mp42 (mp42/isom/avc1)\r\nFile size : 357 MiB\r\nDuration : 44mn 57s\r\nOverall bit rate mode : Variable\r\nOverall bit rate : 1 109 Kbps\r\n\r\nVideo\r\nID : 2\r\nFormat : AVC\r\nFormat/Info : Advanced Video Codec\r\nFormat profile :   \r\nFormat settings, CABAC : Yes\r\nFormat settings, ReFrames : 3 frames\r\nCodec ID : avc1\r\nCodec ID/Info : Advanced Video Coding\r\nDuration : 44mn 57s\r\nBit rate mode : Variable\r\nBit rate : 977 Kbps\r\nMaximum bit rate : 1 000 Kbps\r\nWidth : 720 pixels\r\nHeight : 404 pixels\r\nDisplay aspect ratio : 16:9\r\nOriginal display aspect ratio : 16:9\r\nFrame rate mode : Constant\r\nFrame rate : 25.000 fps\r\nStandard : PAL\r\nColor space : YUV\r\nChroma subsampling : 4:2:0\r\nBit depth : 8 bits\r\nScan type : Progressive\r\nBits/(Pixel*Frame) : 0.134\r\nStream size : 314 MiB (88%)\r\nWriting library : x264 core 112\r\nColor range : Limited\r\nColor primaries : BT.601 PAL\r\nTransfer characteristics : BT.470 System B, BT.470 System G\r\nMatrix coefficients : BT.601\r\n\r\nAudio\r\nID : 1\r\nFormat : AAC\r\nFormat/Info : Advanced Audio Codec\r\nFormat profile : LC\r\nCodec ID : 40\r\nDuration : 44mn 57s\r\nBit rate mode : Variable\r\nBit rate : 128 Kbps\r\nMaximum bit rate : 576 Kbps\r\nChannel(s) : 2 channels\r\nChannel positions : Front: L R\r\nSampling rate : 48.0 KHz\r\nFrame rate : 46.875 fps (1024 spf)\r\nCompression mode : Lossy\r\nStream size : 41.2 MiB (12%)","torrent":{"xt":"urn:btih:8a50311a4014d4e9b4080ea592139b340d4bb2d7","amp;dn":"Crimes+That+Shook+Australia+-+S02E05+-+The+Russell+Street+Bombin","amp;tr":["udp%3A%2F%2Ftracker.leechers-paradise.org%3A6969","udp%3A%2F%2Fzer0day.ch%3A1337","udp%3A%2F%2Fopen.demonii.com%3A1337","udp%3A%2F%2Ftracker.coppersurfer.tk%3A6969","udp%3A%2F%2Fexodus.desync.com%3A6969"],"infoHash":"8a50311a4014d4e9b4080ea592139b340d4bb2d7","infoHashBuffer":{"type":"Buffer","data":[138,80,49,26,64,20,212,233,180,8,14,165,146,19,155,52,13,75,178,215]},"announce":[],"urlList":[]}}